<mxfile host="app.diagrams.net" modified="2021-06-17T11:56:15.112Z" agent="5.0 (Windows)" etag="15M4MXLQOAWCGPi9WjNW" version="14.7.10" type="github">
  <diagram id="C5RBs43oDa-KdzZeNtuy" name="Page-1">
    <mxGraphModel dx="719" dy="472" grid="1" gridSize="10" guides="1" tooltips="1" connect="1" arrows="1" fold="1" page="1" pageScale="1" pageWidth="827" pageHeight="1169" math="0" shadow="0">
      <root>
        <mxCell id="WIyWlLk6GJQsqaUBKTNV-0" />
        <mxCell id="WIyWlLk6GJQsqaUBKTNV-1" parent="WIyWlLk6GJQsqaUBKTNV-0" />
        <mxCell id="JFldLnWWz-I7eqgreNby-8" value="" style="edgeStyle=orthogonalEdgeStyle;rounded=0;orthogonalLoop=1;jettySize=auto;html=1;" edge="1" parent="WIyWlLk6GJQsqaUBKTNV-1" source="JFldLnWWz-I7eqgreNby-1" target="JFldLnWWz-I7eqgreNby-7">
          <mxGeometry relative="1" as="geometry" />
        </mxCell>
        <mxCell id="JFldLnWWz-I7eqgreNby-1" value="&lt;div&gt;BaseTest&lt;/div&gt;&lt;div&gt;bootstrap test&lt;/div&gt;&lt;div&gt;-- browser&lt;/div&gt;&lt;div&gt;--url&lt;/div&gt;&lt;div&gt;-- hub/local&lt;br&gt;&lt;/div&gt;&lt;div&gt;&lt;br&gt;&lt;/div&gt;&lt;div&gt;&lt;br&gt;&lt;/div&gt;" style="whiteSpace=wrap;html=1;aspect=fixed;" vertex="1" parent="WIyWlLk6GJQsqaUBKTNV-1">
          <mxGeometry x="10" y="160" width="130" height="130" as="geometry" />
        </mxCell>
        <mxCell id="JFldLnWWz-I7eqgreNby-12" style="edgeStyle=orthogonalEdgeStyle;rounded=0;orthogonalLoop=1;jettySize=auto;html=1;" edge="1" parent="WIyWlLk6GJQsqaUBKTNV-1" source="JFldLnWWz-I7eqgreNby-2" target="JFldLnWWz-I7eqgreNby-13">
          <mxGeometry relative="1" as="geometry">
            <mxPoint x="560" y="290" as="targetPoint" />
          </mxGeometry>
        </mxCell>
        <mxCell id="JFldLnWWz-I7eqgreNby-2" value="&lt;div&gt;Form page&lt;/div&gt;&lt;div&gt;input_form&lt;/div&gt;&lt;div&gt;input_to&lt;/div&gt;&lt;div&gt;rb_return&lt;/div&gt;&lt;div&gt;rb_oneway&lt;/div&gt;&lt;div&gt;rb_multicity&lt;/div&gt;&lt;div&gt;dp_dep&lt;/div&gt;&lt;div&gt;dp_return&lt;/div&gt;&lt;div&gt;bt_submit&lt;br&gt;&lt;/div&gt;" style="whiteSpace=wrap;html=1;aspect=fixed;" vertex="1" parent="WIyWlLk6GJQsqaUBKTNV-1">
          <mxGeometry x="400" y="240" width="100" height="100" as="geometry" />
        </mxCell>
        <mxCell id="JFldLnWWz-I7eqgreNby-6" value="&lt;div&gt;what to automate?&lt;/div&gt;&lt;div&gt;- which test case will define that this software passes smoke&lt;br&gt;&lt;/div&gt;&lt;div&gt;how to automate?&lt;/div&gt;&lt;div&gt;--designing of the test case&lt;/div&gt;&lt;div&gt;&lt;br&gt;&lt;/div&gt;&lt;div&gt;Cheap flight&lt;/div&gt;&lt;div&gt;- go to url &amp;lt;- asert titile ensure&lt;br&gt;&lt;/div&gt;&lt;div&gt;- fill form &amp;lt;to new page&lt;/div&gt;&lt;div&gt;select the best&lt;br&gt;&lt;/div&gt;&lt;div&gt;&lt;br&gt;&lt;/div&gt;&lt;div&gt;&lt;br&gt;&lt;/div&gt;" style="rounded=0;whiteSpace=wrap;html=1;" vertex="1" parent="WIyWlLk6GJQsqaUBKTNV-1">
          <mxGeometry x="230" y="30" width="330" height="100" as="geometry" />
        </mxCell>
        <mxCell id="JFldLnWWz-I7eqgreNby-10" style="edgeStyle=orthogonalEdgeStyle;rounded=0;orthogonalLoop=1;jettySize=auto;html=1;" edge="1" parent="WIyWlLk6GJQsqaUBKTNV-1" source="JFldLnWWz-I7eqgreNby-7" target="JFldLnWWz-I7eqgreNby-9">
          <mxGeometry relative="1" as="geometry" />
        </mxCell>
        <mxCell id="JFldLnWWz-I7eqgreNby-7" value="DriverManager&lt;br&gt;-set driver" style="rounded=1;whiteSpace=wrap;html=1;" vertex="1" parent="WIyWlLk6GJQsqaUBKTNV-1">
          <mxGeometry x="20" y="330" width="120" height="60" as="geometry" />
        </mxCell>
        <mxCell id="JFldLnWWz-I7eqgreNby-9" value="&lt;div&gt;Controller&lt;/div&gt;&lt;div&gt;-initiates landing pages&lt;br&gt;&lt;/div&gt;" style="rhombus;whiteSpace=wrap;html=1;" vertex="1" parent="WIyWlLk6GJQsqaUBKTNV-1">
          <mxGeometry x="180" y="170" width="150" height="130" as="geometry" />
        </mxCell>
        <mxCell id="JFldLnWWz-I7eqgreNby-11" value="&lt;div&gt;BASE PAGE&lt;/div&gt;&lt;div&gt;-pageWebDriverClient&lt;/div&gt;&lt;div&gt;-- gotoUrl()&lt;br&gt;&lt;/div&gt;" style="rounded=1;whiteSpace=wrap;html=1;" vertex="1" parent="WIyWlLk6GJQsqaUBKTNV-1">
          <mxGeometry x="420" y="140" width="150" height="70" as="geometry" />
        </mxCell>
        <mxCell id="JFldLnWWz-I7eqgreNby-13" value="Deals page" style="whiteSpace=wrap;html=1;aspect=fixed;" vertex="1" parent="WIyWlLk6GJQsqaUBKTNV-1">
          <mxGeometry x="520" y="250" width="80" height="80" as="geometry" />
        </mxCell>
      </root>
    </mxGraphModel>
  </diagram>
</mxfile>
